<svg width="35" height="35" viewBox="0 0 35 35" fill="none" xmlns="http://www.w3.org/2000/svg">
<path d="M17.5 2.9165C14.6157 2.9165 11.7962 3.7718 9.39796 5.37424C6.99974 6.97668 5.13056 9.25428 4.02678 11.919C2.92301 14.5838 2.63421 17.516 3.19691 20.3449C3.75961 23.1738 5.14854 25.7723 7.18805 27.8118C9.22757 29.8513 11.8261 31.2403 14.655 31.803C17.4838 32.3657 20.4161 32.0769 23.0808 30.9731C25.7456 29.8693 28.0232 28.0001 29.6256 25.6019C31.2281 23.2037 32.0834 20.3841 32.0834 17.4998C32.0834 15.5847 31.7062 13.6884 30.9733 11.919C30.2404 10.1497 29.1662 8.54205 27.812 7.18786C26.4578 5.83368 24.8502 4.75948 23.0808 4.02659C21.3115 3.29371 19.4151 2.9165 17.5 2.9165ZM14.5834 24.0623V10.9373L23.3334 17.4998L14.5834 24.0623Z" fill="white"/>
</svg>
