<svg width="46" height="12" viewBox="0 0 46 12" fill="none" xmlns="http://www.w3.org/2000/svg">
<path d="M19.6926 3.02283C22.0884 3.02283 23.5682 4.74346 23.5683 6.83375C23.5683 7.02663 23.5519 7.31611 23.5359 7.46089H17.1359C17.2324 9.10104 18.2617 10.1785 19.7249 10.1785C20.963 10.1784 21.8147 9.59955 22.0559 8.5866L23.3425 8.89183C22.9405 10.4676 21.5901 11.3846 19.7249 11.3847C17.2969 11.3847 15.7688 9.50318 15.7688 7.20376C15.7688 4.90435 17.2484 3.02284 19.6926 3.02283ZM36.3034 3.1514H38.4743V4.35758H36.3034V8.87613C36.3034 9.72834 36.7864 10.1461 37.4939 10.1461C37.8154 10.1461 38.1852 10.0978 38.5067 9.93706L38.6029 11.1913C38.201 11.336 37.767 11.3847 37.3329 11.3847C35.9501 11.3847 34.9373 10.6128 34.9372 8.82803V4.35758H33.4258V3.1514H34.9372V0.691914H36.3034V3.1514ZM42.8486 3.02283C44.2797 3.02283 45.5181 3.8272 45.8557 5.01711L44.7143 5.51568C44.4892 4.67953 43.6845 4.14854 42.8162 4.14854C41.9 4.14864 41.3216 4.51843 41.3215 5.16138C41.3215 6.89796 46.0158 5.62802 46 8.97231C46 10.3873 44.8101 11.3847 43.0253 11.3847C41.0637 11.3845 40.0029 10.162 39.6491 9.0204L40.8229 8.50612C41.1284 9.45475 41.7713 10.2264 43.0253 10.2266C44.022 10.2266 44.666 9.64813 44.6662 8.98899C44.6662 6.91476 40.0028 8.24888 40.0024 5.17807C40.0024 3.89171 41.1121 3.02287 42.8486 3.02283ZM7.09089 1.30237H1.46332V4.61472H6.02996V5.93377H1.46332V9.93706H7.26853V11.2561H0V0H7.09089V1.30237ZM11.4946 9.66422L13.7617 3.1514H15.177L12.2022 11.2561H10.8037L7.84463 3.1514H9.24318L11.4946 9.66422ZM29.4765 3.02283C31.1647 3.02303 32.3708 4.16529 32.3708 5.88568V11.2561H31.0036V6.14282C31.0036 5.04939 30.312 4.2614 29.1703 4.2614C27.6589 4.26154 26.6941 5.56381 26.6941 7.70233V11.2561H25.327V3.1514H26.6941V4.6795C27.2569 3.7147 28.2384 3.02283 29.4765 3.02283ZM19.6926 4.16424C18.4223 4.16425 17.4897 4.96878 17.2164 6.31948H22.1206C21.992 5.08133 21.1237 4.16424 19.6926 4.16424Z" fill="black"/>
</svg>
