<svg width="307" height="425" viewBox="0 0 307 425" fill="none" xmlns="http://www.w3.org/2000/svg">
<path d="M307 62.5771C307 36.4082 286.615 21.8384 271.161 21.6169C251.25 21.3331 241.58 31.2886 241.58 31.2886V13.6529C241.58 2.84442 153.5 0 153.5 0C144.919 0 65.4199 2.84442 65.4199 13.6529V31.2886C65.4199 31.2886 52.7152 20.1947 35.839 21.6169C20.4391 22.9161 0 36.4082 0 62.5771C0 117.758 85.6146 145.703 93.2948 167.248C94.5743 177.062 82.4142 188.581 86.2543 189.862C90.042 191.124 103.108 173.933 105.24 176.35C107.374 178.768 125.151 228.687 122.876 237.791C120.601 246.893 114.912 253.148 114.343 259.975C113.773 266.801 130.84 277.609 130.84 277.609C130.84 277.609 126.478 287.061 124.014 292.401C121.549 297.742 112.351 357.251 108.654 361.803C104.956 366.355 73.3839 366.355 73.3839 371.332V379.437H45.3204V424.948H260.922V379.437H233.616V371.332C233.616 366.357 202.044 366.357 198.346 361.803C194.649 357.253 185.453 297.742 182.989 292.401C180.524 287.061 176.162 277.609 176.162 277.609C176.162 277.609 193.227 266.801 192.659 259.975C192.09 253.148 186.401 246.892 184.126 237.791C181.851 228.687 199.627 178.768 201.762 176.35C203.894 173.933 216.961 191.124 220.747 189.862C224.587 188.581 212.427 177.062 213.707 167.248C221.385 145.703 307 117.758 307 62.5771ZM237.601 51.767C237.601 51.767 248.409 36.9774 266.043 36.9774C283.679 36.9774 292.781 49.4918 292.781 61.4387C292.781 73.3856 284.866 106.38 230.204 130.272L237.601 51.767ZM12.6096 61.4387C12.6096 49.4918 21.712 36.9774 39.3461 36.9774C56.9818 36.9774 67.7902 51.767 67.7902 51.767L75.1851 130.272C20.5244 106.38 12.6096 73.3856 12.6096 61.4387Z" fill="#C1C1C1"/>
</svg>
